<svg xmlns="http://www.w3.org/2000/svg" width="80" height="80" viewBox="0 0 80 80">
  <!-- Dense stipple pattern like engraving shading -->
  <g fill="#0A0A08">
    <!-- Random scattered dots of various sizes -->
    <circle cx="3" cy="5" r="0.8"/><circle cx="12" cy="3" r="0.5"/><circle cx="23" cy="7" r="0.9"/>
    <circle cx="34" cy="2" r="0.6"/><circle cx="45" cy="8" r="0.7"/><circle cx="56" cy="4" r="0.8"/>
    <circle cx="67" cy="6" r="0.5"/><circle cx="78" cy="3" r="0.9"/>
    <circle cx="8" cy="15" r="0.6"/><circle cx="19" cy="12" r="0.8"/><circle cx="28" cy="18" r="0.5"/>
    <circle cx="39" cy="14" r="0.7"/><circle cx="52" cy="17" r="0.9"/><circle cx="61" cy="13" r="0.6"/>
    <circle cx="73" cy="16" r="0.8"/>
    <circle cx="5" cy="25" r="0.7"/><circle cx="14" cy="28" r="0.5"/><circle cx="26" cy="23" r="0.8"/>
    <circle cx="37" cy="27" r="0.6"/><circle cx="48" cy="24" r="0.9"/><circle cx="59" cy="28" r="0.5"/>
    <circle cx="70" cy="25" r="0.7"/><circle cx="79" cy="22" r="0.6"/>
    <circle cx="2" cy="35" r="0.8"/><circle cx="11" cy="38" r="0.6"/><circle cx="24" cy="33" r="0.5"/>
    <circle cx="35" cy="37" r="0.9"/><circle cx="46" cy="34" r="0.7"/><circle cx="57" cy="38" r="0.8"/>
    <circle cx="68" cy="35" r="0.5"/><circle cx="77" cy="32" r="0.6"/>
    <circle cx="7" cy="45" r="0.5"/><circle cx="18" cy="48" r="0.7"/><circle cx="29" cy="43" r="0.8"/>
    <circle cx="40" cy="47" r="0.6"/><circle cx="51" cy="44" r="0.9"/><circle cx="62" cy="48" r="0.5"/>
    <circle cx="74" cy="45" r="0.7"/>
    <circle cx="4" cy="55" r="0.9"/><circle cx="15" cy="58" r="0.5"/><circle cx="27" cy="53" r="0.7"/>
    <circle cx="38" cy="57" r="0.8"/><circle cx="49" cy="54" r="0.6"/><circle cx="60" cy="58" r="0.9"/>
    <circle cx="71" cy="55" r="0.5"/><circle cx="78" cy="52" r="0.8"/>
    <circle cx="9" cy="65" r="0.6"/><circle cx="20" cy="68" r="0.8"/><circle cx="31" cy="63" r="0.5"/>
    <circle cx="42" cy="67" r="0.7"/><circle cx="53" cy="64" r="0.9"/><circle cx="64" cy="68" r="0.6"/>
    <circle cx="76" cy="65" r="0.8"/>
    <circle cx="6" cy="75" r="0.7"/><circle cx="17" cy="78" r="0.6"/><circle cx="28" cy="73" r="0.8"/>
    <circle cx="39" cy="77" r="0.5"/><circle cx="50" cy="74" r="0.9"/><circle cx="61" cy="78" r="0.7"/>
    <circle cx="72" cy="75" r="0.6"/><circle cx="79" cy="72" r="0.5"/>
  </g>
</svg>
